<svg width="current" height="current" viewBox="-1 -12 100 100" fill="none" xmlns="http://www.w3.org/2000/svg">
    <g transform="translate(20, 20) scale(0.6)" clip-path="url(#prefix__clip)">
        <path
            d="M96.592 41.79a65.788 65.788 0 01-.768-1.138c-1.553-2.376-3.34-5.561-4.227-8.751-1.765-6.325.883-6.325 1.765-14.91.883-8.583-2.427-15.586-2.427-15.586C82.111-1.758 67.993 7.73 67.993 7.73 59.83 3.89 49.24 3.89 49.24 3.89s-10.589 0-18.751 3.84c0 0-14.119-9.488-22.943-6.325 0 0-3.309 7.003-2.427 15.587.883 8.584 3.53 8.584 1.765 14.909-.891 3.19-2.673 6.37-4.227 8.751-.264.402-.52.786-.767 1.139-1.32 1.906-1.417 7.138-.265 9.153 4.324 7.6 17.282 24.298 47.615 24.298 30.333 0 43.292-16.699 47.615-24.298 1.148-2.02 1.055-7.251-.264-9.153zM73.45 24.565c-10.646-7.789-17.15-.795-17.15-.795-2.978 3.56-2.744 7.545-1.42 10.834 1.218 3.027 3.432 5.525 6.172 7.21 2.193 1.351 5.692 3.398 8.49 4.545 4.411 1.808 3.97 19.026-20.296 19.026-24.267 0-24.708-17.218-20.296-19.026 2.793-1.143 6.296-3.194 8.489-4.545 2.74-1.685 4.955-4.183 6.172-7.21 1.324-3.29 1.558-7.279-1.42-10.834 0 0-6.5-6.994-17.15.795-6.967 5.096-7.487 10.531-13.32 13.68 1.482-3.361 4.143-8.792 7.523-13.12 6.07-7.77 16.324-12.817 30.002-12.817 13.677 0 23.93 5.046 30.002 12.817 3.38 4.328 6.04 9.759 7.522 13.12-5.828-3.149-6.353-8.584-13.32-13.68z"
            fill="#9f67ec" />
        <path
            d="M34.46 33.708c2.072 0 3.751-1.72 3.751-3.84 0-2.121-1.679-3.84-3.75-3.84-2.071 0-3.75 1.719-3.75 3.84 0 2.12 1.679 3.84 3.75 3.84zM10.856 5.697s-3.574 8.232.42 14.959c0 0 5.316-7.73 12.816-11.345 0 0-4.853-4.066-13.236-3.614zm53.166 28.011c2.071 0 3.75-1.72 3.75-3.84 0-2.121-1.679-3.84-3.75-3.84-2.071 0-3.75 1.719-3.75 3.84 0 2.12 1.679 3.84 3.75 3.84z"
            fill="#fff" />
        <path
            d="M79.243 25.124c-6.07-7.77-16.324-12.817-30.002-12.817-13.677 0-23.93 5.046-30.002 12.817-3.384 4.328-6.04 9.759-7.523 13.12 5.829-3.149 6.354-8.584 13.32-13.68 10.647-7.79 17.15-.795 17.15-.795 2.978 3.56 2.745 7.545 1.421 10.834-1.218 3.027-3.432 5.525-6.172 7.21-2.193 1.351-5.692 3.398-8.49 4.545-4.411 1.808-3.97 19.025 20.296 19.025 24.267 0 24.708-17.217 20.296-19.025-2.793-1.143-6.296-3.194-8.489-4.545-2.74-1.685-4.955-4.183-6.172-7.21-1.324-3.29-1.558-7.279 1.42-10.834 0 0 6.5-6.994 17.15.795 6.967 5.096 7.487 10.531 13.32 13.68-1.482-3.361-4.143-8.792-7.523-13.12zm8.383-19.427s3.574 8.232-.419 14.959c0 0-5.316-7.73-12.817-11.345 0 0 4.853-4.066 13.236-3.614z"
            fill="#fff" />
        <path
            d="M56.927 51.834c-.406-.28-.48-.294-1.765-.29-.194 0-.401.006-.617.006-2.705 0-4.068-2.038-4.563-2.987v-1.265c1.58-.705 5.194-2.553 5.877-5.01.883-3.163-2.78-3.163-2.78-3.163h-7.672s-3.662 0-2.78 3.163c.68 2.44 4.254 4.283 5.847 4.997v1.337c-.521.976-1.889 2.923-4.532 2.923-.22 0-.428 0-.617-.005-1.289-.009-1.36.01-1.765.29-.402.275-.009 1.066 0 1.08 1.222 1.608 3.494 3.682 7.17 3.822v-.028h1.036v.027c3.676-.14 5.948-2.218 7.17-3.822.009-.013.401-.8 0-1.08l-.009.005z"
            fill="#9f67ec" />
    </g>
    <defs>
        <clipPath id="prefix__clip">
            <path fill="#fff" d="M0 0h100v75H0z" />
        </clipPath>
    </defs>
</svg>
